<mxfile host="65bd71144e" scale="1" border="10">
    <diagram id="59DvSauhzj3vqoOBRgNi" name="iterator">
        <mxGraphModel dx="1632" dy="886" grid="1" gridSize="10" guides="1" tooltips="1" connect="1" arrows="1" fold="1" page="1" pageScale="1" pageWidth="827" pageHeight="1169" background="#FFFFFF" math="0" shadow="0">
            <root>
                <mxCell id="w9Iu98WscyFDLbroQzuf-0"/>
                <mxCell id="w9Iu98WscyFDLbroQzuf-1" parent="w9Iu98WscyFDLbroQzuf-0"/>
                <mxCell id="Yrwoq0YL18L5McrpzAKP-1" value="std::map::insert()" style="text;strokeColor=#666666;fillColor=#f5f5f5;html=1;fontSize=24;fontStyle=1;verticalAlign=middle;align=center;shadow=0;labelBorderColor=none;fontColor=#333333;" parent="w9Iu98WscyFDLbroQzuf-1" vertex="1">
                    <mxGeometry x="235" y="250" width="245" height="40" as="geometry"/>
                </mxCell>
                <mxCell id="96" style="edgeStyle=none;html=1;exitX=0.5;exitY=1;exitDx=0;exitDy=0;entryX=0.5;entryY=0;entryDx=0;entryDy=0;fillColor=#f5f5f5;strokeColor=#666666;" edge="1" parent="w9Iu98WscyFDLbroQzuf-1" source="80" target="92">
                    <mxGeometry relative="1" as="geometry"/>
                </mxCell>
                <mxCell id="97" style="edgeStyle=none;html=1;entryX=0.5;entryY=0;entryDx=0;entryDy=0;fillColor=#f5f5f5;strokeColor=#666666;" edge="1" parent="w9Iu98WscyFDLbroQzuf-1" source="80" target="93">
                    <mxGeometry relative="1" as="geometry"/>
                </mxCell>
                <mxCell id="80" value="key | value" style="rounded=0;whiteSpace=wrap;html=1;shadow=0;labelBorderColor=none;strokeColor=#666666;fillColor=#f5f5f5;fontColor=#333333;" parent="w9Iu98WscyFDLbroQzuf-1" vertex="1">
                    <mxGeometry x="320" y="320" width="80" height="40" as="geometry"/>
                </mxCell>
                <mxCell id="99" style="edgeStyle=none;html=1;exitX=0.5;exitY=1;exitDx=0;exitDy=0;entryX=0.5;entryY=0;entryDx=0;entryDy=0;fillColor=#f5f5f5;strokeColor=#666666;" edge="1" parent="w9Iu98WscyFDLbroQzuf-1" source="92" target="94">
                    <mxGeometry relative="1" as="geometry"/>
                </mxCell>
                <mxCell id="100" style="edgeStyle=none;html=1;exitX=0.5;exitY=1;exitDx=0;exitDy=0;entryX=0.5;entryY=0;entryDx=0;entryDy=0;fillColor=#f5f5f5;strokeColor=#666666;" edge="1" parent="w9Iu98WscyFDLbroQzuf-1" source="92" target="98">
                    <mxGeometry relative="1" as="geometry"/>
                </mxCell>
                <mxCell id="92" value="key | value" style="rounded=0;whiteSpace=wrap;html=1;shadow=0;labelBorderColor=none;strokeColor=#666666;fillColor=#f5f5f5;fontColor=#333333;" vertex="1" parent="w9Iu98WscyFDLbroQzuf-1">
                    <mxGeometry x="240" y="400" width="80" height="40" as="geometry"/>
                </mxCell>
                <mxCell id="93" value="key | value" style="rounded=0;whiteSpace=wrap;html=1;shadow=0;labelBorderColor=none;strokeColor=#666666;fillColor=#f5f5f5;fontColor=#333333;" vertex="1" parent="w9Iu98WscyFDLbroQzuf-1">
                    <mxGeometry x="400" y="400" width="80" height="40" as="geometry"/>
                </mxCell>
                <mxCell id="94" value="key | value" style="rounded=0;whiteSpace=wrap;html=1;shadow=0;labelBorderColor=none;strokeColor=#666666;fillColor=#f5f5f5;fontColor=#333333;" vertex="1" parent="w9Iu98WscyFDLbroQzuf-1">
                    <mxGeometry x="160" y="480" width="80" height="40" as="geometry"/>
                </mxCell>
                <mxCell id="98" value="key | value" style="rounded=0;whiteSpace=wrap;html=1;shadow=0;labelBorderColor=none;strokeColor=#666666;fillColor=#f5f5f5;fontColor=#333333;" vertex="1" parent="w9Iu98WscyFDLbroQzuf-1">
                    <mxGeometry x="320" y="480" width="80" height="40" as="geometry"/>
                </mxCell>
            </root>
        </mxGraphModel>
    </diagram>
</mxfile>